<?xml version="1.0" standalone="no"?>
<!DOCTYPE svg PUBLIC "-//W3C//DTD SVG 20010904//EN"
 "http://www.w3.org/TR/2001/REC-SVG-20010904/DTD/svg10.dtd">
<svg version="1.0" xmlns="http://www.w3.org/2000/svg"
 width="840.000000pt" height="660.000000pt" viewBox="0 0 840.000000 660.000000"
 preserveAspectRatio="xMidYMid meet">

<g transform="translate(0.000000,660.000000) scale(0.100000,-0.100000)"
fill="#000000" stroke="none">
<path d="M3323 6285 c-218 -39 -452 -170 -584 -327 -157 -185 -222 -342 -255
-620 l-5 -48 -597 0 c-351 0 -632 -4 -682 -10 -126 -16 -223 -45 -336 -100
-298 -147 -511 -444 -554 -771 -8 -59 -10 -564 -8 -1669 l3 -1585 27 -97 c92
-335 341 -600 665 -707 161 -54 -5 -51 3203 -51 2612 0 2978 2 3055 15 216 38
389 128 546 285 137 136 220 282 272 475 l22 80 3 1590 c2 1150 0 1612 -8
1670 -66 457 -427 808 -890 865 -50 6 -331 10 -682 10 l-597 0 -6 58 c-15 147
-51 284 -98 377 -151 302 -427 507 -752 560 -124 20 -1630 20 -1742 0z m1107
-1716 c197 -23 398 -86 590 -185 176 -91 295 -178 445 -329 145 -145 237 -267
319 -426 143 -274 206 -530 206 -839 0 -289 -59 -539 -186 -794 -383 -765
-1247 -1154 -2072 -931 -575 155 -1044 597 -1232 1162 -72 216 -84 297 -84
558 -1 202 2 244 22 343 34 168 83 310 162 467 94 188 179 304 335 460 154
154 271 240 455 334 328 166 662 224 1040 180z"/>
<path d="M4075 3799 c-154 -21 -316 -82 -446 -169 -148 -99 -299 -286 -368
-456 -56 -137 -66 -195 -66 -379 0 -147 3 -182 23 -255 97 -357 374 -633 732
-728 134 -35 353 -37 484 -4 191 48 358 144 491 284 93 97 142 167 196 283 70
149 83 214 83 420 0 168 -2 186 -27 270 -56 184 -132 311 -261 441 -135 135
-290 223 -469 269 -107 27 -272 38 -372 24z"/>
</g>
</svg>
