<?xml version="1.0" standalone="no"?>
<!DOCTYPE svg PUBLIC "-//W3C//DTD SVG 20010904//EN"
 "http://www.w3.org/TR/2001/REC-SVG-20010904/DTD/svg10.dtd">
<svg version="1.0" xmlns="http://www.w3.org/2000/svg"
 width="256.000000pt" height="256.000000pt" viewBox="0 0 256.000000 256.000000"
 preserveAspectRatio="xMidYMid meet">

<g transform="translate(0.000000,256.000000) scale(0.100000,-0.100000)"
fill="#000000" stroke="none">
<path d="M750 2341 l-445 -107 0 -954 0 -954 450 -108 c248 -59 453 -107 458
-107 4 -1 7 49 7 109 l0 110 265 0 265 0 0 200 0 201 -87 -3 -88 -3 -3 -107
-3 -108 -174 0 -175 0 0 770 0 770 175 0 174 0 3 -107 3 -108 88 -3 87 -3 0
201 0 200 -265 0 -265 0 0 110 c0 82 -3 110 -12 109 -7 -1 -213 -49 -458 -108z"/>
<path d="M1700 1535 l0 -115 -150 0 -150 0 0 -140 0 -140 150 0 150 0 0 -115
c0 -75 4 -115 11 -115 13 0 549 361 549 370 0 9 -536 370 -549 370 -7 0 -11
-40 -11 -115z"/>
</g>
</svg>
