<?xml version="1.0" standalone="no"?>
<!DOCTYPE svg PUBLIC "-//W3C//DTD SVG 20010904//EN"
 "http://www.w3.org/TR/2001/REC-SVG-20010904/DTD/svg10.dtd">
<svg version="1.0" xmlns="http://www.w3.org/2000/svg"
 width="670.000000pt" height="373.000000pt" viewBox="0 0 670.000000 373.000000"
 preserveAspectRatio="xMidYMid meet">

<g transform="translate(0.000000,373.000000) scale(0.100000,-0.100000)"
fill="#000000" stroke="none">
<path d="M3992 3568 c-21 -7 -43 -26 -58 -49 -36 -57 -39 -83 -15 -131 18 -38
32 -49 113 -90 125 -64 171 -90 212 -122 19 -14 37 -26 40 -26 6 0 14 -6 121
-97 205 -174 371 -426 460 -697 55 -166 66 -235 72 -436 7 -243 -5 -337 -75
-555 -42 -132 -178 -396 -228 -440 -6 -5 -25 -30 -43 -55 -47 -68 -259 -270
-282 -270 -5 0 -9 -4 -9 -10 0 -5 -5 -10 -11 -10 -6 0 -28 -13 -48 -28 -46
-36 -143 -92 -201 -117 -25 -10 -57 -27 -73 -38 -106 -72 -52 -241 78 -241 27
0 183 71 260 117 244 149 443 338 603 573 26 39 88 151 115 209 16 33 35 71
41 85 23 45 73 201 105 325 57 223 53 604 -10 831 -12 43 -25 93 -29 109 -27
100 -122 313 -183 410 -120 191 -266 362 -402 470 -27 22 -51 43 -53 48 -2 4
-8 7 -13 7 -5 0 -17 7 -26 16 -61 55 -344 210 -399 218 -16 3 -44 0 -62 -6z"/>
<path d="M3105 3322 c-16 -11 -215 -204 -442 -431 l-412 -411 -333 0 c-315 0
-335 -1 -366 -20 -18 -11 -38 -32 -45 -48 -8 -20 -13 -167 -15 -543 -4 -589
-5 -575 70 -609 40 -18 68 -20 363 -20 l320 0 420 -419 c231 -230 435 -426
454 -436 40 -20 87 -14 125 16 60 47 56 -46 56 1454 0 1472 2 1414 -49 1459
-31 28 -108 32 -146 8z"/>
<path d="M3752 3023 c-51 -25 -72 -58 -72 -115 0 -66 23 -97 102 -137 187 -96
303 -196 405 -349 131 -197 167 -317 166 -562 -1 -190 -18 -272 -87 -423 -55
-119 -179 -275 -278 -349 -20 -15 -42 -34 -50 -41 -7 -7 -53 -35 -103 -61
-116 -61 -155 -101 -155 -157 0 -22 8 -54 18 -71 19 -33 78 -68 114 -68 36 0
248 105 248 123 0 4 5 7 11 7 11 0 72 42 100 70 9 8 31 29 50 46 43 39 129
131 129 138 0 2 14 20 30 38 17 18 30 38 30 45 0 7 3 13 8 13 4 0 16 17 27 38
10 20 24 44 30 52 18 23 91 208 109 275 53 200 50 473 -8 680 -92 329 -349
636 -659 786 -89 43 -116 47 -165 22z"/>
<path d="M3496 2459 c-55 -43 -71 -115 -38 -171 9 -16 44 -45 77 -63 80 -45
158 -126 192 -200 25 -53 28 -71 28 -161 0 -96 -2 -103 -38 -176 -38 -78 -101
-144 -171 -178 -17 -8 -47 -31 -68 -51 -31 -29 -38 -43 -38 -73 0 -123 109
-171 239 -104 33 17 61 35 61 40 0 4 6 8 13 8 16 0 147 133 147 149 0 6 4 11
8 11 5 0 27 40 51 88 46 97 71 196 71 282 0 177 -97 389 -227 497 -58 48 -128
94 -166 111 -44 19 -110 15 -141 -9z"/>
</g>
</svg>
